HIERARCHY
ROOT Base
{
  OFFSET 40.0631 -7.20455 -19.0727
  CHANNELS 6 Xposition Yposition Zposition Zrotation Xrotation Yrotation
  JOINT Hips
  {
    OFFSET 0 103.797 1.28397
    CHANNELS 6 Xposition Yposition Zposition Zrotation Xrotation Yrotation
    JOINT Spine
    {
      OFFSET 0 10.1816 0.1315
      CHANNELS 6 Xposition Yposition Zposition Zrotation Xrotation Yrotation
      JOINT Spine1
      {
        OFFSET 0 10.0835 -1.0008
        CHANNELS 6 Xposition Yposition Zposition Zrotation Xrotation Yrotation
        JOINT Spine2
        {
          OFFSET 0 9.1 -1.3734
          CHANNELS 6 Xposition Yposition Zposition Zrotation Xrotation Yrotation
          JOINT Neck1
          {
            OFFSET 0 16.6717 -2.5162
            CHANNELS 6 Xposition Yposition Zposition Zrotation Xrotation Yrotation
            JOINT Neck2
            {
              OFFSET 0 9.6179 1.685
              CHANNELS 6 Xposition Yposition Zposition Zrotation Xrotation Yrotation
              JOINT Skull
              {
                OFFSET 0 7.59293 2.585
                CHANNELS 6 Xposition Yposition Zposition Zrotation Xrotation Yrotation
                JOINT LeftEye
                {
                  OFFSET 3.0676 -1.18343 6.6986
                  CHANNELS 6 Xposition Yposition Zposition Zrotation Xrotation Yrotation
                  End Site
                  {
                    OFFSET 0 0 0
                  }
                }
                JOINT RightEye
                {
                  OFFSET -3.0676 -1.18343 6.6985
                  CHANNELS 6 Xposition Yposition Zposition Zrotation Xrotation Yrotation
                  End Site
                  {
                    OFFSET 0 0 0
                  }
                }
              }
            }
          }
          JOINT LeftShoulder
          {
            OFFSET 4.5704 10.946 -2.628
            CHANNELS 6 Xposition Yposition Zposition Zrotation Xrotation Yrotation
            JOINT LeftArm
            {
              OFFSET 10.5924 -0.5246 -2.2321
              CHANNELS 6 Xposition Yposition Zposition Zrotation Xrotation Yrotation
              JOINT LeftForeArm
              {
                OFFSET 27.8415 -0.0001 0
                CHANNELS 6 Xposition Yposition Zposition Zrotation Xrotation Yrotation
                JOINT LeftHand
                {
                  OFFSET 28.3288 0 0
                  CHANNELS 6 Xposition Yposition Zposition Zrotation Xrotation Yrotation
                  JOINT LeftHandThumb1
                  {
                    OFFSET 2.4661 -1.575 2.6824
                    CHANNELS 6 Xposition Yposition Zposition Zrotation Xrotation Yrotation
                    JOINT LeftHandThumb2
                    {
                      OFFSET 3.2298 -1.8647 1.8647
                      CHANNELS 6 Xposition Yposition Zposition Zrotation Xrotation Yrotation
                      End Site
                      {
                        OFFSET 2.6526 -1.5315 1.5315
                      }
                    }
                  }
                  JOINT LeftHandIndex1
                  {
                    OFFSET 9.1093 -0.5171 2.2601
                    CHANNELS 6 Xposition Yposition Zposition Zrotation Xrotation Yrotation
                    JOINT LeftHandIndex2
                    {
                      OFFSET 3.6764 0 0
                      CHANNELS 6 Xposition Yposition Zposition Zrotation Xrotation Yrotation
                      End Site
                      {
                        OFFSET 2.8831 0 0
                      }
                    }
                  }
                  JOINT LeftHandMiddle1
                  {
                    OFFSET 9.5334 0 0
                    CHANNELS 6 Xposition Yposition Zposition Zrotation Xrotation Yrotation
                    JOINT LeftHandMiddle2
                    {
                      OFFSET 3.6982 0 0
                      CHANNELS 6 Xposition Yposition Zposition Zrotation Xrotation Yrotation
                      End Site
                      {
                        OFFSET 2.9509 0 0
                      }
                    }
                  }
                  JOINT LeftHandRing1
                  {
                    OFFSET 9.1045 -0.0439 -1.8651
                    CHANNELS 6 Xposition Yposition Zposition Zrotation Xrotation Yrotation
                    JOINT LeftHandRing2
                    {
                      OFFSET 3.154 0 0
                      CHANNELS 6 Xposition Yposition Zposition Zrotation Xrotation Yrotation
                      End Site
                      {
                        OFFSET 2.9377 0 0
                      }
                    }
                  }
                  JOINT LeftHandPinky1
                  {
                    OFFSET 8.0778 -0.4887 -3.8061
                    CHANNELS 6 Xposition Yposition Zposition Zrotation Xrotation Yrotation
                    JOINT LeftHandPinky2
                    {
                      OFFSET 3.6 0 0
                      CHANNELS 6 Xposition Yposition Zposition Zrotation Xrotation Yrotation
                      End Site
                      {
                        OFFSET 2.1142 0 0
                      }
                    }
                  }
                }
              }
            }
          }
          JOINT RightShoulder
          {
            OFFSET -4.57 10.9462 -2.628
            CHANNELS 6 Xposition Yposition Zposition Zrotation Xrotation Yrotation
            JOINT RightArm
            {
              OFFSET -10.5928 -0.5248 -2.2321
              CHANNELS 6 Xposition Yposition Zposition Zrotation Xrotation Yrotation
              JOINT RightForeArm
              {
                OFFSET -27.8415 0 0
                CHANNELS 6 Xposition Yposition Zposition Zrotation Xrotation Yrotation
                JOINT RightHand
                {
                  OFFSET -28.3288 0 0.0001
                  CHANNELS 6 Xposition Yposition Zposition Zrotation Xrotation Yrotation
                  JOINT RightHandPinky1
                  {
                    OFFSET -8.0767 -0.4885 -3.806
                    CHANNELS 6 Xposition Yposition Zposition Zrotation Xrotation Yrotation
                    JOINT RightHandPinky2
                    {
                      OFFSET -3.6 0 0.0001
                      CHANNELS 6 Xposition Yposition Zposition Zrotation Xrotation Yrotation
                      End Site
                      {
                        OFFSET -2.1142 0 0
                      }
                    }
                  }
                  JOINT RightHandRing1
                  {
                    OFFSET -9.1036 -0.0439 -1.8651
                    CHANNELS 6 Xposition Yposition Zposition Zrotation Xrotation Yrotation
                    JOINT RightHandRing2
                    {
                      OFFSET -3.154 0 0
                      CHANNELS 6 Xposition Yposition Zposition Zrotation Xrotation Yrotation
                      End Site
                      {
                        OFFSET -2.9377 0 0
                      }
                    }
                  }
                  JOINT RightHandMiddle1
                  {
                    OFFSET -9.5325 0 0
                    CHANNELS 6 Xposition Yposition Zposition Zrotation Xrotation Yrotation
                    JOINT RightHandMiddle2
                    {
                      OFFSET -3.6982 0 0
                      CHANNELS 6 Xposition Yposition Zposition Zrotation Xrotation Yrotation
                      End Site
                      {
                        OFFSET -2.9509 0 0
                      }
                    }
                  }
                  JOINT RightHandIndex1
                  {
                    OFFSET -9.1083 -0.5168 2.2601
                    CHANNELS 6 Xposition Yposition Zposition Zrotation Xrotation Yrotation
                    JOINT RightHandIndex2
                    {
                      OFFSET -3.6764 0 0
                      CHANNELS 6 Xposition Yposition Zposition Zrotation Xrotation Yrotation
                      End Site
                      {
                        OFFSET -2.8831 0 0
                      }
                    }
                  }
                  JOINT RightHandThumb1
                  {
                    OFFSET -2.4648 -1.5727 2.6826
                    CHANNELS 6 Xposition Yposition Zposition Zrotation Xrotation Yrotation
                    JOINT RightHandThumb2
                    {
                      OFFSET -3.2298 -1.8647 1.8647
                      CHANNELS 6 Xposition Yposition Zposition Zrotation Xrotation Yrotation
                      End Site
                      {
                        OFFSET -2.6526 -1.5314 1.5314
                      }
                    }
                  }
                }
              }
            }
          }
        }
      }
    }
    JOINT LeftUpLeg
    {
      OFFSET 8.2078 -6.7517 -1.5996
      CHANNELS 6 Xposition Yposition Zposition Zrotation Xrotation Yrotation
      JOINT LeftLeg
      {
        OFFSET 0 -44.3705 0.2846
        CHANNELS 6 Xposition Yposition Zposition Zrotation Xrotation Yrotation
        JOINT LeftFoot
        {
          OFFSET 0 -44.4279 -2.9822
          CHANNELS 6 Xposition Yposition Zposition Zrotation Xrotation Yrotation
          End Site
          {
            OFFSET 0 -8.7287 10.7106
          }
        }
      }
    }
    JOINT RightUpLeg
    {
      OFFSET -8.2078 -6.7517 -1.5996
      CHANNELS 6 Xposition Yposition Zposition Zrotation Xrotation Yrotation
      JOINT RightLeg
      {
        OFFSET 0 -44.3705 0.2862
        CHANNELS 6 Xposition Yposition Zposition Zrotation Xrotation Yrotation
        JOINT RightFoot
        {
          OFFSET 0 -44.4277 -2.9838
          CHANNELS 6 Xposition Yposition Zposition Zrotation Xrotation Yrotation
          End Site
          {
            OFFSET 0 -8.7287 10.7106
          }
        }
      }
    }
  }
}
MOTION
Frames:	4
Frame Time:	0.0416667
-6.86336 -8.12324 -17.5663 -5.80036 -5.1512 -59.0486 0 103.797 1.28397 8.82781e-032 -1.59028e-015 3.18055e-015 0 10.1816 0.1315 8.76327 6.13204 14.3982 0 10.0835 -1.0008 -8.75143 0.575159 2.15628 1.77636e-015 9.1 -1.3734 -8.73929 0.860777 2.12775 -7.10543e-015 16.6717 -2.5162 -3.21208 0.354008 -4.15146 0 9.6179 1.685 -3.21207 0.354009 -4.15148 0 7.59293 2.585 -3.21208 0.354007 -4.15146 3.0676 -1.18343 6.6986 -1.59028e-015 -3.18055e-015 9.54166e-015 -3.0676 -1.18343 6.6985 -1.59028e-015 -3.18055e-015 9.54166e-015 4.5704 10.946 -2.628 -0.245306 -0.0696625 3.96528 10.5924 -0.5246 -2.2321 -35.8669 8.34902 4.00948 27.8415 -0.0001 0 -0.000196977 -1.19632e-006 -101.424 28.3288 0 0 56.0071 39.8985 -13.2717 2.4661 -1.575 2.6824 23.2731 -0.13816 14.3713 3.2298 -1.8647 1.8647 1.21805 4.82301 14.6643 9.1093 -0.5171 2.2601 29.1299 -0.872437 -3.35473 3.6764 7.10543e-015 -2.66454e-015 -2.29568e-005 1.72803e-006 1.38473e-005 9.5334 1.42109e-014 -8.88178e-016 22.3668 -0.519319 -2.62175 3.6982 7.10543e-015 0 -2.41828 -0.00611956 0.290652 9.1045 -0.0439 -1.8651 14.1118 -0.208791 -1.6795 3.154 0 -8.88178e-016 -6.36713 -0.042416 0.763935 8.0778 -0.4887 -3.8061 8.07579 -0.0506032 3.14782 3.6 1.42109e-014 0 -10.6149 0.622989 -2.77744 -4.57 10.9462 -2.628 -5.17603 0.526519 2.49111 -10.5928 -0.5248 -2.2321 24.3442 -42.2094 2.57773 -27.8415 0 0 -4.12859e-006 -8.26497e-006 43.5278 -28.3288 0 0.0001 -55.2776 -3.07627 -5.72572 -8.0767 -0.4885 -3.806 3.62898 1.66888 -0.440482 -3.6 3.55271e-015 0.0001 16.1785 1.4751 -1.4593 -9.1036 -0.0439 -1.8651 -5.12834 1.65484 0.619826 -3.154 3.55271e-015 -7.10543e-015 11.095 1.58443 -1.00882 -9.5325 0 0 -16.0417 1.41245 1.91641 -3.6982 0 0 4.79973 1.66391 -0.438613 -9.1083 -0.5168 2.2601 -24.9299 1.03624 2.92396 -3.6764 0 0 0.290863 1.68218 -0.0266141 -2.4648 -1.5727 2.6826 -24.1267 -2.38587 1.76718 -3.2298 -1.8647 1.8647 -0.538954 5.19448 -13.271 8.2078 -6.7517 -1.5996 18.1045 -4.48909 3.54935 -3.55271e-015 -44.3705 0.2846 5.11613 28.0109 -12.4623 0 -44.4279 -2.9822 -21.0606 -17.4137 -12.1742 -8.2078 -6.7517 -1.5996 -17.6331 -8.80542 -7.37296 0 -44.3705 0.2862 6.3784 44.4566 -15.2805 0 -44.4277 -2.9838 15.4543 -22.8348 -3.69104 
-12.9726 -8.92408 -21.5645 -7.87638 -4.08579 -58.0367 0 103.797 1.28397 4.41391e-032 7.95139e-016 -3.18055e-015 3.55271e-015 10.1816 0.1315 7.27693 6.65702 12.3715 3.55271e-015 10.0835 -1.0008 -7.68589 0.219688 1.84766 0 9.1 -1.3734 -7.68862 0.438496 1.80496 0 16.6717 -2.5162 -2.77915 0.549435 -3.95613 0 9.6179 1.685 -2.77914 0.549415 -3.95612 -7.10543e-015 7.59293 2.585 -2.77915 0.549416 -3.95607 3.0676 -1.18343 6.6986 -1.59028e-015 -2.38542e-015 -0 -3.0676 -1.18343 6.6985 -1.59028e-015 -2.38542e-015 -0 4.5704 10.946 -2.628 -2.6692 0.0978129 2.84573 10.5924 -0.5246 -2.2321 -41.0803 1.07526 4.37352 27.8415 -0.0001 7.10543e-015 -0.00021433 -4.59135e-006 -107.512 28.3288 0 0 44.1563 38.4567 -1.55104 2.4661 -1.575 2.6824 23.144 -0.278469 13.2987 3.2298 -1.8647 1.8647 1.18344 4.7591 14.1276 9.1093 -0.5171 2.2601 29.8922 -0.917177 -3.43495 3.6764 0 -3.55271e-015 -3.63791e-005 -4.39495e-006 3.0092e-006 9.5334 1.42109e-014 0 24.9416 -0.64282 -2.906 3.6982 -7.10543e-015 -3.55271e-015 -1.73532 -0.00315325 0.208587 9.1045 -0.0439 -1.8651 18.9608 -0.373893 -2.23871 3.154 1.42109e-014 -3.55271e-015 -4.24673 -0.018909 0.510096 8.0778 -0.4887 -3.8061 14.7894 -0.210003 2.35699 3.6 0 7.10543e-015 -7.92085 0.483863 -3.12776 -4.57 10.9462 -2.628 -1.37086 0.643135 1.61074 -10.5928 -0.5248 -2.2321 27.7034 -44.6502 3.29581 -27.8415 0 0 -1.57395e-006 -1.37635e-006 52.7909 -28.3288 0 0.0001 -53.2439 -1.42864 -2.71238 -8.0767 -0.4885 -3.806 -0.36762 1.68201 0.0428987 -3.6 -3.55271e-015 0.0001 15.3258 1.4962 -1.38416 -9.1036 -0.0439 -1.8651 -7.90064 1.61657 0.953121 -3.154 -1.42109e-014 7.10543e-015 10.2406 1.59888 -0.931973 -9.5325 0 1.42109e-014 -17.3163 1.3681 2.06425 -3.6982 7.10543e-015 0 4.01672 1.66949 -0.367202 -9.1083 -0.5168 2.2601 -25.0082 1.03205 2.93249 -3.6764 1.42109e-014 7.10543e-015 5.43782e-005 1.68237 -5.69996e-006 -2.4648 -1.5727 2.6826 -24.0527 -2.43264 2.23625 -3.2298 -1.8647 1.8647 -0.523976 5.16765 -13.0373 8.2078 -6.7517 -1.5996 22.8812 -4.79089 13.1228 0 -44.3705 0.2846 8.43894 31.718 -14.9415 -3.55271e-015 -44.4279 -2.9822 -22.7551 -16.853 -9.23402 -8.2078 -6.7517 -1.5996 -14.0493 -8.18627 -5.85454 -7.10543e-015 -44.3705 0.2862 9.58125 47.9215 -18.1358 0 -44.4277 -2.9838 14.0472 -25.5731 -4.78757 
-20.4129 -9.05894 -23.333 -11.0387 -4.03927 -58.2034 3.55271e-015 103.797 1.28397 7.95139e-016 1.59028e-015 3.18055e-015 0 10.1816 0.1315 5.82626 9.01746 9.57868 3.55271e-015 10.0835 -1.0008 -6.01586 0.566519 1.53311 3.55271e-015 9.1 -1.3734 -6.0222 0.708824 1.45643 0 16.6717 -2.5162 -2.34547 -0.123007 -3.45563 -7.10543e-015 9.6179 1.685 -2.34547 -0.122986 -3.45563 0 7.59293 2.585 -2.34546 -0.122978 -3.45564 3.0676 -1.18343 6.6986 4.77083e-015 0 -9.54166e-015 -3.0676 -1.18343 6.6985 4.77083e-015 0 -9.54166e-015 4.5704 10.946 -2.628 -5.65385 0.718314 -0.483004 10.5924 -0.5246 -2.2321 -42.4808 -1.05975 -1.17088 27.8415 -0.0001 3.55271e-015 -0.000207447 -4.1727e-006 -110.07 28.3288 0 1.42109e-014 39.8724 35.9516 2.82399 2.4661 -1.575 2.6824 23.1123 -0.312093 13.0387 3.2298 -1.8647 1.8647 1.17495 4.74369 13.9975 9.1093 -0.5171 2.2601 26.5637 -0.72819 -3.08163 3.6764 7.10543e-015 0 -3.17335e-005 1.72022e-005 1.51529e-005 9.5334 1.42109e-014 7.10543e-015 23.8086 -0.586892 -2.78161 3.6982 0 7.10543e-015 -0.887086 -0.0008374 0.106655 9.1045 -0.0439 -1.8651 20.5467 -0.438131 -2.41838 3.154 7.10543e-015 0 -2.13422 -0.00478902 0.256515 8.0778 -0.4887 -3.8061 18.5767 -0.339679 1.92034 3.6 0 7.10543e-015 -4.51278 0.284474 -3.56105 -4.57 10.9462 -2.628 1.48641 0.61727 0.411493 -10.5928 -0.5248 -2.2321 33.913 -47.7287 8.22009 -27.8415 0 1.42109e-014 -5.78149e-006 5.90859e-006 62.7581 -28.3288 0 0.0001 -51.2619 -0.187749 0.226393 -8.0767 -0.4885 -3.806 -6.84047 1.63178 0.824031 -3.6 0 0.0001 14.0128 1.52654 -1.2679 -9.1036 -0.0439 -1.8651 -11.9707 1.53119 1.43816 -3.154 0 7.10543e-015 9.22001 1.61464 -0.839942 -9.5325 7.10543e-015 -7.10543e-015 -18.4373 1.32641 2.19342 -3.6982 0 0 3.48043 1.67268 -0.318229 -9.1083 -0.5168 2.2601 -23.7644 1.09426 2.79523 -3.6764 2.84217e-014 -7.10543e-015 6.38754e-005 1.68236 -1.37921e-005 -2.4648 -1.5727 2.6826 -23.9822 -2.4764 2.68105 -3.2298 -1.8647 1.8647 -0.509646 5.14228 -12.8157 8.2078 -6.7517 -1.5996 26.9703 -3.33691 19.0632 -1.77636e-015 -44.3705 0.2846 11.5658 34.5933 -16.5969 -7.10543e-015 -44.4279 -2.9822 -23.1108 -16.6214 -9.74985 -8.2078 -6.7517 -1.5996 -10.8949 -6.16538 -3.9733 -7.10543e-015 -44.3705 0.2862 12.2732 50.5007 -20.4963 0 -44.4277 -2.9838 12.7771 -27.987 -5.48122 
-27.3754 -8.37366 -24.0875 -14.3123 -4.30095 -59.5403 0 103.797 1.28397 3.18055e-015 2.38542e-015 3.18055e-015 0 10.1816 0.1315 5.38284 11.7722 6.40162 3.55271e-015 10.0835 -1.0008 -4.42691 1.96825 1.20283 -3.55271e-015 9.1 -1.3734 -4.41872 2.0491 1.09744 0 16.6717 -2.5162 -1.98089 -1.78752 -2.62081 7.10543e-015 9.6179 1.685 -1.98091 -1.78749 -2.62078 0 7.59293 2.585 -1.98086 -1.78746 -2.62081 3.0676 -1.18343 6.6986 -2.38542e-015 -1.59028e-015 3.18055e-015 -3.0676 -1.18343 6.6985 -2.38542e-015 -1.59028e-015 3.18055e-015 4.5704 10.946 -2.628 -7.00293 1.42349 -4.29174 10.5924 -0.5246 -2.2321 -38.6376 -4.6878 -10.5988 27.8415 -0.0001 8.88178e-016 -0.000197268 7.2334e-007 -112.287 28.3288 0 0 37.7618 38.9244 3.30222 2.4661 -1.575 2.6824 23.0745 -0.35185 12.7298 3.2298 -1.8647 1.8647 1.16484 4.72536 13.843 9.1093 -0.5171 2.2601 23.375 -0.565332 -2.7341 3.6764 -3.55271e-015 0 -3.30827e-005 -3.65047e-006 1.14447e-006 9.5334 -1.42109e-014 0 21.2361 -0.468101 -2.49575 3.6982 -7.10543e-015 7.10543e-015 -0.170394 -2.6365e-005 0.02049 9.1045 -0.0439 -1.8651 18.7186 -0.364971 -2.21095 3.154 -3.55271e-015 0 -0.481243 -0.000219911 0.0578508 8.0778 -0.4887 -3.8061 17.3362 -0.295322 2.06286 3.6 0 -7.10543e-015 -1.5172 0.0884676 -3.93191 -4.57 10.9462 -2.628 1.44346 0.551072 -0.0123363 -10.5928 -0.5248 -2.2321 41.8455 -49.6255 15.0788 -27.8415 0 0 -2.28281e-005 -4.15901e-006 71.2372 -28.3288 0 0.0001 -49.0377 0.747461 2.40436 -8.0767 -0.4885 -3.806 -13.2685 1.49694 1.58982 -3.6 7.10543e-015 0.0001 11.4574 1.57785 -1.03976 -9.1036 -0.0439 -1.8651 -15.9913 1.41401 1.91049 -3.154 0 0 7.4169 1.63842 -0.676688 -9.5325 -1.42109e-014 7.10543e-015 -19.5031 1.28451 2.31551 -3.6982 0 7.10543e-015 2.76159 1.67627 -0.252562 -9.1083 -0.5168 2.2601 -22.4597 1.15634 2.64988 -3.6764 0 0 5.62446e-005 1.68236 -1.38649e-005 -2.4648 -1.5727 2.6826 -23.9309 -2.50784 3.00384 -3.2298 -1.8647 1.8647 -0.499173 5.12391 -12.655 8.2078 -6.7517 -1.5996 30.0099 -1.06551 19.8641 0 -44.3705 0.2846 12.546 36.7682 -16.0261 -3.55271e-015 -44.4279 -2.9822 -22.1134 -15.711 -10.4559 -8.2078 -6.7517 -1.5996 -8.30184 -3.31936 -3.04613 0 -44.3705 0.2862 12.5879 51.3872 -20.7893 0 -44.4277 -2.9838 11.733 -30.1522 -5.31443 
